<svg width="116" height="108" viewBox="0 0 116 108" fill="none" xmlns="http://www.w3.org/2000/svg">
<path d="M44.136 45.16C44.136 48.232 43.416 51.04 41.976 53.584C40.584 56.08 38.448 58.096 35.568 59.632C32.736 61.12 29.256 61.864 25.128 61.864H18.144V79H4.032V28.24H25.128C29.208 28.24 32.664 28.96 35.496 30.4C38.376 31.84 40.536 33.832 41.976 36.376C43.416 38.92 44.136 41.848 44.136 45.16ZM23.76 50.632C27.744 50.632 29.736 48.808 29.736 45.16C29.736 41.464 27.744 39.616 23.76 39.616H18.144V50.632H23.76ZM82.2054 52.936C85.1814 53.608 87.5334 55.096 89.2614 57.4C91.0374 59.656 91.9254 62.248 91.9254 65.176C91.9254 69.496 90.4374 72.88 87.4614 75.328C84.4854 77.776 80.3094 79 74.9334 79H49.8054V28.24H74.1414C79.3254 28.24 83.3814 29.392 86.3094 31.696C89.2854 34 90.7734 37.24 90.7734 41.416C90.7734 44.392 89.9814 46.888 88.3974 48.904C86.8614 50.872 84.7974 52.216 82.2054 52.936ZM63.9174 48.4H71.0454C74.5974 48.4 76.3734 46.936 76.3734 44.008C76.3734 40.984 74.5974 39.472 71.0454 39.472H63.9174V48.4ZM72.1254 67.624C75.6774 67.624 77.4534 66.136 77.4534 63.16C77.4534 61.624 76.9734 60.448 76.0134 59.632C75.1014 58.816 73.7814 58.408 72.0534 58.408H63.9174V67.624H72.1254ZM104.95 79.576C102.454 79.576 100.438 78.904 98.9021 77.56C97.4141 76.168 96.6701 74.416 96.6701 72.304C96.6701 70.192 97.4141 68.44 98.9021 67.048C100.438 65.656 102.454 64.96 104.95 64.96C107.398 64.96 109.366 65.656 110.854 67.048C112.39 68.44 113.158 70.192 113.158 72.304C113.158 74.368 112.39 76.096 110.854 77.488C109.366 78.88 107.398 79.576 104.95 79.576Z" fill="#011638"/>
<path d="M41.976 53.584L41.1057 53.0914L41.1026 53.0969L41.976 53.584ZM35.568 59.632L36.0331 60.5173L36.0386 60.5144L35.568 59.632ZM18.144 61.864V60.864H17.144V61.864H18.144ZM18.144 79V80H19.144V79H18.144ZM4.032 79H3.032V80H4.032V79ZM4.032 28.24V27.24H3.032V28.24H4.032ZM35.496 30.4L35.0427 31.2914L35.0488 31.2944L35.496 30.4ZM41.976 36.376L41.1057 36.8686L41.1057 36.8686L41.976 36.376ZM18.144 39.616V38.616H17.144V39.616H18.144ZM18.144 50.632H17.144V51.632H18.144V50.632ZM43.136 45.16C43.136 48.0685 42.4563 50.7054 41.1057 53.0914L42.8463 54.0766C44.3757 51.3746 45.136 48.3955 45.136 45.16H43.136ZM41.1026 53.0969C39.8169 55.4023 37.8327 57.2908 35.0974 58.7496L36.0386 60.5144C39.0633 58.9012 41.3511 56.7577 42.8494 54.0711L41.1026 53.0969ZM35.1029 58.7468C32.4499 60.1407 29.1396 60.864 25.128 60.864V62.864C29.3724 62.864 33.0221 62.0993 36.0331 60.5172L35.1029 58.7468ZM25.128 60.864H18.144V62.864H25.128V60.864ZM17.144 61.864V79H19.144V61.864H17.144ZM18.144 78H4.032V80H18.144V78ZM5.032 79V28.24H3.032V79H5.032ZM4.032 29.24H25.128V27.24H4.032V29.24ZM25.128 29.24C29.0939 29.24 32.3853 29.9402 35.0428 31.2914L35.9492 29.5086C32.9427 27.9798 29.3221 27.24 25.128 27.24V29.24ZM35.0488 31.2944C37.7698 32.6549 39.7735 34.515 41.1057 36.8686L42.8463 35.8834C41.2985 33.1489 38.9822 31.0251 35.9432 29.5056L35.0488 31.2944ZM41.1057 36.8686C42.4499 39.2433 43.136 41.9973 43.136 45.16H45.136C45.136 41.6987 44.3821 38.5967 42.8463 35.8834L41.1057 36.8686ZM23.76 51.632C25.8854 51.632 27.666 51.1473 28.9173 50.0015C30.1854 48.8404 30.736 47.1619 30.736 45.16H28.736C28.736 46.8061 28.2906 47.8636 27.5667 48.5265C26.826 49.2047 25.6186 49.632 23.76 49.632V51.632ZM30.736 45.16C30.736 43.1378 30.1876 41.4428 28.9221 40.2689C27.6708 39.1081 25.8883 38.616 23.76 38.616V40.616C25.6157 40.616 26.8212 41.0479 27.5619 41.7351C28.2885 42.4091 28.736 43.4862 28.736 45.16H30.736ZM23.76 38.616H18.144V40.616H23.76V38.616ZM17.144 39.616V50.632H19.144V39.616H17.144ZM18.144 51.632H23.76V49.632H18.144V51.632ZM82.2054 52.936L81.9378 51.9725L81.9852 53.9114L82.2054 52.936ZM89.2614 57.4L88.4614 58L88.4685 58.0094L88.4757 58.0186L89.2614 57.4ZM87.4614 75.328L88.0967 76.1003L88.0967 76.1003L87.4614 75.328ZM49.8054 79H48.8054V80H49.8054V79ZM49.8054 28.24V27.24H48.8054V28.24H49.8054ZM86.3094 31.696L85.691 32.4819L85.6973 32.4867L86.3094 31.696ZM88.3974 48.904L87.6111 48.2862L87.6091 48.2887L88.3974 48.904ZM63.9174 48.4H62.9174V49.4H63.9174V48.4ZM63.9174 39.472V38.472H62.9174V39.472H63.9174ZM76.0134 59.632L75.3466 60.3772L75.3561 60.3857L75.3658 60.3939L76.0134 59.632ZM63.9174 58.408V57.408H62.9174V58.408H63.9174ZM63.9174 67.624H62.9174V68.624H63.9174V67.624ZM81.9852 53.9114C84.7444 54.5345 86.8849 55.8979 88.4614 58L90.0614 56.8C88.182 54.2941 85.6185 52.6815 82.4257 51.9606L81.9852 53.9114ZM88.4757 58.0186C90.11 60.0945 90.9254 62.4676 90.9254 65.176H92.9254C92.9254 62.0284 91.9649 59.2175 90.0472 56.7814L88.4757 58.0186ZM90.9254 65.176C90.9254 69.2379 89.5414 72.3222 86.8262 74.5557L88.0967 76.1003C91.3334 73.4378 92.9254 69.7541 92.9254 65.176H90.9254ZM86.8262 74.5557C84.0884 76.8078 80.1682 78 74.9334 78V80C80.4507 80 84.8825 78.7442 88.0967 76.1003L86.8262 74.5557ZM74.9334 78H49.8054V80H74.9334V78ZM50.8054 79V28.24H48.8054V79H50.8054ZM49.8054 29.24H74.1414V27.24H49.8054V29.24ZM74.1414 29.24C79.1875 29.24 82.9969 30.3619 85.691 32.4819L86.9278 30.9101C83.7659 28.4221 79.4634 27.24 74.1414 27.24V29.24ZM85.6973 32.4867C88.3995 34.5788 89.7734 37.5106 89.7734 41.416H91.7734C91.7734 36.9694 90.1714 33.4212 86.9216 30.9053L85.6973 32.4867ZM89.7734 41.416C89.7734 44.2056 89.0351 46.4738 87.6111 48.2862L89.1838 49.5218C90.9278 47.3022 91.7734 44.5784 91.7734 41.416H89.7734ZM87.6091 48.2887C86.2153 50.0745 84.3404 51.3051 81.9378 51.9725L82.4731 53.8995C85.2545 53.1269 87.5075 51.6695 89.1858 49.5193L87.6091 48.2887ZM63.9174 49.4H71.0454V47.4H63.9174V49.4ZM71.0454 49.4C72.9337 49.4 74.5357 49.0148 75.6775 48.0736C76.8563 47.1019 77.3734 45.6825 77.3734 44.008H75.3734C75.3734 45.2615 75.0026 46.0381 74.4054 46.5304C73.7711 47.0532 72.7092 47.4 71.0454 47.4V49.4ZM77.3734 44.008C77.3734 42.296 76.8631 40.8436 75.6897 39.8446C74.547 38.8718 72.9398 38.472 71.0454 38.472V40.472C72.7031 40.472 73.7598 40.8282 74.3932 41.3674C74.9957 41.8804 75.3734 42.696 75.3734 44.008H77.3734ZM71.0454 38.472H63.9174V40.472H71.0454V38.472ZM62.9174 39.472V48.4H64.9174V39.472H62.9174ZM72.1254 68.624C74.0167 68.624 75.6214 68.2315 76.7637 67.2745C77.9398 66.2891 78.4534 64.8532 78.4534 63.16H76.4534C76.4534 64.4428 76.0791 65.2389 75.4792 65.7415C74.8455 66.2725 73.7862 66.624 72.1254 66.624V68.624ZM78.4534 63.16C78.4534 61.4009 77.8931 59.9173 76.6611 58.8701L75.3658 60.3939C76.0537 60.9787 76.4534 61.8471 76.4534 63.16H78.4534ZM76.6802 58.8868C75.5215 57.85 73.9266 57.408 72.0534 57.408V59.408C73.6363 59.408 74.6814 59.782 75.3466 60.3772L76.6802 58.8868ZM72.0534 57.408H63.9174V59.408H72.0534V57.408ZM62.9174 58.408V67.624H64.9174V58.408H62.9174ZM63.9174 68.624H72.1254V66.624H63.9174V68.624ZM98.9021 77.56L98.219 78.2903L98.2311 78.3016L98.2436 78.3126L98.9021 77.56ZM98.9021 67.048L98.2306 66.307L98.2247 66.3123L98.219 66.3177L98.9021 67.048ZM110.854 67.048L110.171 67.7783L110.177 67.7837L110.183 67.789L110.854 67.048ZM110.854 77.488L110.183 76.747L110.177 76.7523L110.171 76.7577L110.854 77.488ZM104.95 78.576C102.64 78.576 100.876 77.9584 99.5606 76.8074L98.2436 78.3126C100 79.8496 102.268 80.576 104.95 80.576V78.576ZM99.5853 76.8297C98.3076 75.6345 97.6701 74.1506 97.6701 72.304H95.6701C95.6701 74.6814 96.5207 76.7015 98.219 78.2903L99.5853 76.8297ZM97.6701 72.304C97.6701 70.4574 98.3076 68.9735 99.5853 67.7783L98.219 66.3177C96.5207 67.9065 95.6701 69.9266 95.6701 72.304H97.6701ZM99.5736 67.789C100.89 66.5963 102.649 65.96 104.95 65.96V63.96C102.259 63.96 99.9866 64.7157 98.2306 66.307L99.5736 67.789ZM104.95 65.96C107.199 65.96 108.904 66.5933 110.171 67.7783L111.537 66.3177C109.828 64.7187 107.598 63.96 104.95 63.96V65.96ZM110.183 67.789C111.505 68.9874 112.158 70.4682 112.158 72.304H114.158C114.158 69.9158 113.275 67.8926 111.526 66.307L110.183 67.789ZM112.158 72.304C112.158 74.0843 111.51 75.5436 110.183 76.747L111.526 78.229C113.27 76.6484 114.158 74.6517 114.158 72.304H112.158ZM110.171 76.7577C108.904 77.9427 107.199 78.576 104.95 78.576V80.576C107.598 80.576 109.828 79.8173 111.537 78.2183L110.171 76.7577Z" fill="#011638"/>
</svg>
